<svg width="28" height="28" viewBox="0 0 28 28" fill="none" xmlns="http://www.w3.org/2000/svg">
<rect width="28" height="28" fill="white"/>
<path d="M9.75235 16.4424C6.49373 16.4424 6 12.5418 6 10.2212C6 8.12277 6.37033 6.46877 7.08644 5.40718C7.70358 4.46909 8.61702 4 9.75235 4C10.8883 4 11.8756 4.46909 12.5667 5.43182C13.3567 6.51816 13.7766 8.17216 13.7766 10.2212C13.7766 14.1218 12.271 16.4424 9.77739 16.4424H9.75235Z" fill="black"/>
<path d="M23.1775 16.4424C19.9189 16.4424 19.4253 12.5418 19.4253 10.2212C19.4253 8.12277 19.7955 6.46877 20.5116 5.40718C21.1288 4.46909 22.0422 4 23.1775 4C24.3135 4 25.3008 4.46909 25.9919 5.43182C26.782 6.51816 27.2017 8.17216 27.2017 10.2212C27.2017 14.1218 25.6962 16.4424 23.2026 16.4424H23.1775Z" fill="black"/>
</svg>
