<svg width="654" height="796" viewBox="0 0 654 796" fill="none" xmlns="http://www.w3.org/2000/svg">
<path d="M125.682 616.238C43.4434 798.354 218.605 844.064 347.8 737.48C385.815 856.984 528.18 767.797 579.362 675.119C691.915 470.891 646.446 262.681 634.768 219.698C554.765 -73.2326 154.751 -73.7296 85.9284 221.189C69.7794 272.868 69.5304 331.504 60.5864 392.375C56.1144 423.184 52.6354 442.812 40.9584 475.109C34.0014 493.748 24.8084 510.143 9.90141 537.969C-12.9566 581.205 -3.2676 664.437 114.998 621.207L126.179 616.238H125.682Z" fill="black"/>
<path d="M363.251 346.677C330.456 346.677 325.487 307.421 325.487 284.066C325.487 262.947 329.214 246.301 336.421 235.617C342.632 226.176 351.825 221.455 363.251 221.455C374.683 221.455 384.62 226.176 391.575 235.865C399.526 246.798 403.751 263.444 403.751 284.066C403.751 323.322 388.599 346.677 363.503 346.677H363.251Z" fill="white"/>
<path d="M498.368 346.677C465.573 346.677 460.605 307.421 460.605 284.066C460.605 262.947 464.331 246.301 471.538 235.617C477.749 226.176 486.942 221.455 498.368 221.455C509.8 221.455 519.738 226.176 526.693 235.865C534.645 246.798 538.868 263.444 538.868 284.066C538.868 323.322 523.716 346.677 498.62 346.677H498.368Z" fill="white"/>
</svg>
