<svg width="654" height="796" viewBox="0 0 654 796" fill="none" xmlns="http://www.w3.org/2000/svg">
<path d="M356.166 10C470.556 9.88017 586.379 80.4976 625.118 222.319V222.32C636.559 264.429 681.274 469.474 570.608 670.285C545.984 714.874 499.247 758.622 454.888 776.601C432.765 785.567 412.509 787.626 396.2 781.772C380.351 776.084 366.144 762.158 357.33 734.449L352.846 720.354L341.437 729.767C278.605 781.602 206.419 794.852 161.328 775.903C139.214 766.61 123.315 749.571 117.242 724.635C111.076 699.314 114.78 664.677 134.796 620.354L128.578 617.546L126.18 606.238H119.226L118.012 608.925L111.268 611.922C53.6582 632.908 28.0657 621.282 17.7607 606.337C12.1289 598.169 9.63568 587.355 10.042 575.642C10.4474 563.954 13.7291 552.123 18.7412 542.643C33.4627 515.164 43.0769 498.031 50.3271 478.606L50.3447 478.558L50.3623 478.51C62.362 445.32 65.9619 424.949 70.4795 393.828L70.4805 393.829C74.9827 363.188 77.3478 332.699 80.4941 304.442C83.676 275.868 87.6947 249.065 95.4736 224.172L95.583 223.82L95.667 223.462C128.944 80.8657 241.843 10.1199 356.166 10Z" stroke="#560591" stroke-width="20"/>
<path d="M363.251 231.455C371.62 231.455 378.465 234.751 383.451 241.697L383.488 241.747C389.703 250.293 393.751 264.529 393.751 284.067C393.751 302.614 390.14 316.131 384.633 324.676C379.415 332.773 372.411 336.677 363.503 336.677H363.251C357.216 336.677 352.976 334.931 349.746 332.358C346.361 329.661 343.533 325.601 341.293 320.262C336.73 309.385 335.487 295.336 335.487 284.067C335.487 263.764 339.133 249.48 344.712 241.209L344.744 241.161L344.775 241.114C349.041 234.63 355.012 231.455 363.251 231.455Z" stroke="#560591" stroke-width="20"/>
<path d="M498.368 231.455C506.737 231.455 513.582 234.751 518.568 241.697L518.605 241.747C524.821 250.293 528.868 264.528 528.868 284.067C528.868 302.614 525.257 316.131 519.75 324.676C514.532 332.773 507.529 336.677 498.62 336.677H498.368C492.333 336.677 488.093 334.931 484.863 332.358C481.479 329.661 478.65 325.601 476.41 320.262C471.848 309.385 470.605 295.336 470.605 284.067C470.605 263.764 474.25 249.479 479.829 241.209L479.861 241.161L479.893 241.114C484.158 234.63 490.129 231.455 498.368 231.455Z" stroke="#560591" stroke-width="20"/>
</svg>
